<?xml version="1.0" encoding="UTF-8" standalone="no"?>
<!-- Created with Inkscape (http://www.inkscape.org/) -->

<svg
   version="1.1"
   id="svg1"
   width="256.71741"
   height="536.17468"
   viewBox="0 0 256.71741 536.17468"
   xmlns="http://www.w3.org/2000/svg"
   xmlns:svg="http://www.w3.org/2000/svg">
  <defs
     id="defs1" />
  <g
     id="g1"
     transform="translate(-728.22106,-1.8435291)">
    <g
       id="g2"
       transform="translate(552.14723,-44.907975)">
      <path
         style="fill:#fde5c1"
         d="m 218.5,563.07931 c -5.37762,-1.33207 -12.02404,-4.72251 -15.85972,-8.09029 -12.89481,-11.32179 -8.87298,-27.3879 8.74666,-34.94056 4.41695,-1.89332 4.60766,-1.89329 13.79596,0.003 8.64694,1.78428 14.14631,1.92351 76.45663,1.9357 57.03059,0.0112 68.39282,-0.2246 75.46336,-1.56586 4.57811,-0.86845 9.1656,-2.02951 10.19444,-2.58012 2.8537,-1.52726 14.00768,2.79522 19.35191,7.4994 13.12559,11.55361 9.70639,26.3144 -8.14924,35.18047 l -6,2.97925 -85.5,0.16121 c -47.025,0.0887 -86.85,-0.17319 -88.5,-0.5819 z m 8.60463,-61.66183 c -2.96745,-0.79799 -7.61717,-2.66015 -10.33272,-4.13814 -13.86884,-7.54837 -12.81332,-17.01031 2.72809,-24.45523 l 6,-2.87423 2.44983,3.27506 c 5.4743,7.31834 14.76047,15.50616 21.06892,18.57694 C 261.06057,497.66349 263.93705,498 302,498 c 37.9544,0 40.95927,-0.34717 52.77695,-6.09755 6.13569,-2.98557 16.11544,-11.74381 21.28246,-18.67751 l 2.44059,-3.27506 6.02349,2.87548 c 15.59803,7.44613 16.65169,16.86302 2.73437,24.43778 -10.56112,5.74808 -10.48083,5.74277 -85.71796,5.67105 -57.03017,-0.0544 -69.97844,-0.3182 -74.43527,-1.51671 z m 33.48842,-23.89337 c -3.24882,-1.33563 -7.52382,-3.71675 -9.5,-5.29138 -3.86785,-3.08191 -40.91848,-53.82706 -46.53327,-63.73273 -5.10866,-9.01273 -6.92925,-16.42853 -6.24809,-25.45024 0.31351,-4.15237 3.9139,-23.77267 8.00086,-43.60066 5.53791,-26.86736 8.15139,-37.5225 10.25948,-41.82777 4.92999,-10.06836 10.77175,-14.33387 43.5276,-31.78282 30.32868,-16.156 34.25695,-17.82736 41.90037,-17.82736 7.65206,0 11.5812,1.66727 42,17.82204 26.38456,14.01227 30.19611,16.35326 36.09145,22.16681 4.83861,4.77147 7.13848,7.96691 8.6485,12.01623 2.91704,7.8224 17.27311,79.36869 17.25302,85.98377 -0.0227,7.47889 -2.10945,14.75267 -6.37885,22.23495 -6.78581,11.89236 -42.92528,61.06656 -47.33181,64.40337 -2.31973,1.75659 -6.72411,4.13158 -9.78751,5.27774 -5.26241,1.96892 -7.51331,2.08263 -40.78231,2.0602 -34.96876,-0.0236 -35.25338,-0.0405 -41.11944,-2.45215 z M 220.68262,262.75 c 1.71279,-14.78631 10.58013,-28.42149 25.85881,-39.76272 22.12645,-16.42427 56.98438,-21.4095 85.91733,-12.28753 15.30727,4.82607 25.57828,11.22654 36.12964,22.51449 6.69268,7.1599 10.42748,13.17229 12.72917,20.49179 1.53165,4.87076 2.84159,13.29397 2.0674,13.29397 -0.23359,0 -2.10327,-1.04925 -4.15484,-2.33167 -2.05157,-1.28241 -16.12466,-8.93646 -31.27353,-17.009 -28.5683,-15.22348 -34.82927,-17.6246 -45.9566,-17.6246 -11.10805,0 -17.35074,2.3954 -45.93459,17.6257 -15.16098,8.07821 -29.24397,15.73434 -31.29554,17.01361 -2.05157,1.27928 -3.92125,2.32596 -4.15484,2.32596 -0.2336,0 -0.20318,-1.9125 0.0676,-4.25 z m -6.35065,-88.1219 c -5.59199,-24.26938 -10.04732,-44.24608 -9.90074,-44.39266 0.31191,-0.31191 51.56877,66.53551 51.56877,67.2542 0,0.26687 -3.0375,2.01695 -6.75,3.88907 -6.09776,3.07494 -13.45146,8.11846 -21.75038,14.91744 l -3.00039,2.4581 z M 370,211.28304 c -5.35284,-4.13226 -15.73346,-10.16807 -22,-12.79189 -2.475,-1.0363 -4.64502,-1.97827 -4.82228,-2.09327 -0.25528,-0.16564 48.98305,-63.55087 51.82997,-66.72149 0.63171,-0.70354 -10.81725,47.13737 -18.17634,75.95207 L 374.5,214.75692 Z M 265.64576,188.4871 c -3.37095,-4.41479 -3.46032,-4.77895 -4.11072,-16.75 -0.36567,-6.73041 -0.52315,-20.3371 -0.34995,-30.2371 l 0.31491,-18 14,32.4047 c 7.7,17.82259 14.1151,32.6804 14.25579,33.01736 0.21009,0.50322 -17.60665,4.16019 -19.95998,4.09688 -0.38731,-0.0104 -2.25483,-2.04975 -4.15005,-4.53184 z M 321,190.84435 c -3.025,-0.51019 -7.55497,-1.24638 -10.06659,-1.63598 L 306.36682,188.5 320.90398,155.3039 c 7.99543,-18.25785 14.6066,-33.10785 14.69147,-33 0.0849,0.10786 -0.17893,14.52031 -0.58623,32.02769 -0.68709,29.53408 -0.88379,32.02418 -2.72521,34.5 -2.27037,3.05255 -3.65475,3.29949 -11.28401,2.01276 z m -28.32408,-27.74445 -4.62544,-10.9001 4.62191,-23.3499 c 2.54205,-12.84245 4.90487,-23.67658 5.25071,-24.07584 0.34583,-0.39927 2.78586,10.12346 5.42227,23.38386 l 4.79349,24.1098 -4.69672,10.86614 C 300.85895,169.11024 298.42051,174 298.0234,174 c -0.39712,0 -2.80348,-4.90505 -5.34748,-10.9001 z M 248.15789,162 c 0,-1.375 0.22698,-1.9375 0.50439,-1.25 0.27741,0.6875 0.27741,1.8125 0,2.5 -0.27741,0.6875 -0.50439,0.125 -0.50439,-1.25 z m -1,-56 c 0,-1.375 0.22698,-1.9375 0.50439,-1.25 0.27741,0.6875 0.27741,1.8125 0,2.5 -0.27741,0.6875 -0.50439,0.125 -0.50439,-1.25 z M 349.07895,78.416667 c 0.048,-1.164943 0.28494,-1.4019 0.60416,-0.604167 0.28887,0.721875 0.25335,1.584375 -0.0789,1.916667 -0.33229,0.332291 -0.56864,-0.258334 -0.52522,-1.3125 z"
         id="path8" />
      <path
         style="fill:#e3cfaf"
         d="m 185.87244,565.25 c -1.24387,-1.58606 -1.2085,-1.62143 0.37756,-0.37756 1.66575,1.30637 2.19548,2.12756 1.37244,2.12756 -0.20765,0 -0.99515,-0.7875 -1.75,-1.75 z m -9.79349,-28.83333 c 0.048,-1.16495 0.28494,-1.4019 0.60416,-0.60417 0.28887,0.72187 0.25335,1.58438 -0.0789,1.91667 -0.3323,0.33229 -0.56864,-0.25834 -0.52522,-1.3125 z M 223.5,287 c 0.99549,-1.1 2.03498,-2 2.30998,-2 0.275,0 -0.31449,0.9 -1.30998,2 -0.99549,1.1 -2.03498,2 -2.30998,2 -0.275,0 0.31449,-0.9 1.30998,-2 z m 155.90499,-0.25 -1.90499,-2.25 2.25,1.90499 c 1.2375,1.04774 2.25,2.06024 2.25,2.25 0,0.80025 -0.80479,0.20945 -2.59501,-1.90499 z m -12.48068,-55.5 -2.42431,-2.75 2.75,2.42431 c 2.57029,2.26589 3.20859,3.07569 2.42431,3.07569 -0.17912,0 -1.41662,-1.2375 -2.75,-2.75 z M 238.5,229 c 0.99549,-1.1 2.03498,-2 2.30998,-2 0.275,0 -0.31449,0.9 -1.30998,2 -0.99549,1.1 -2.03498,2 -2.30998,2 -0.275,0 0.31449,-0.9 1.30998,-2 z M 225,218.62244 c 0,-0.20765 0.7875,-0.99515 1.75,-1.75 1.58606,-1.24387 1.62143,-1.2085 0.37756,0.37756 C 225.82119,218.91575 225,219.44548 225,218.62244 Z m 82.26903,-29.31543 c 0.97297,-0.25354 2.32297,-0.23687 3,0.0371 0.67703,0.27393 -0.11903,0.48137 -1.76903,0.46099 -1.65,-0.0204 -2.20394,-0.2445 -1.23097,-0.49804 z M 334.232,180 c 0,-1.925 0.2058,-2.7125 0.45733,-1.75 0.25152,0.9625 0.25152,2.5375 0,3.5 -0.25153,0.9625 -0.45733,0.175 -0.45733,-1.75 z m -72.97982,-4.5 c 0.0111,-2.2 0.21589,-2.98225 0.45508,-1.73834 0.23919,1.24391 0.23011,3.04391 -0.0202,4 -0.25029,0.95609 -0.446,-0.0617 -0.4349,-2.26166 z m 85.93937,-8.56919 C 347.06873,165.31887 347.14792,164 347.36754,164 c 0.72573,0 1.37778,5.03937 0.70579,5.45468 -0.36215,0.22382 -0.75895,-0.91192 -0.88178,-2.52387 z M 248.15789,158 c 0,-1.375 0.22698,-1.9375 0.50439,-1.25 0.27741,0.6875 0.27741,1.8125 0,2.5 -0.27741,0.6875 -0.50439,0.125 -0.50439,-1.25 z M 335.232,134 c 0,-1.925 0.2058,-2.7125 0.45733,-1.75 0.25152,0.9625 0.25152,2.5375 0,3.5 -0.25153,0.9625 -0.45733,0.175 -0.45733,-1.75 z m -74.77312,-11.06653 c -0.36253,-0.58659 -0.44468,-1.281 -0.18255,-1.54313 0.26212,-0.26213 0.74306,0.21781 1.06875,1.06653 0.67618,1.76211 0.0999,2.07206 -0.8862,0.4766 z M 348.15789,121 c 0,-1.375 0.22698,-1.9375 0.50439,-1.25 0.27741,0.6875 0.27741,1.8125 0,2.5 -0.27741,0.6875 -0.50439,0.125 -0.50439,-1.25 z M 247.19495,101.5 c 0.0204,-1.65 0.2445,-2.203936 0.49804,-1.23097 0.25354,0.97297 0.23687,2.32297 -0.0371,3 -0.27393,0.67703 -0.48137,-0.11903 -0.46099,-1.76903 z M 349.15789,75 c 0,-1.375 0.22698,-1.9375 0.50439,-1.25 0.27741,0.6875 0.27741,1.8125 0,2.5 -0.27741,0.6875 -0.50439,0.125 -0.50439,-1.25 z"
         id="path7" />
      <path
         style="fill:#b3a692"
         d="m 266.75,564.25036 c 21.0375,-0.15077 55.4625,-0.15077 76.5,0 21.0375,0.15076 3.825,0.27412 -38.25,0.27412 -42.075,0 -59.2875,-0.12336 -38.25,-0.27412 z M 199.87244,553.25 c -1.24387,-1.58606 -1.2085,-1.62143 0.37756,-0.37756 0.9625,0.75485 1.75,1.54235 1.75,1.75 0,0.82304 -0.82119,0.29331 -2.12756,-1.37244 z M 176.19495,540.5 c 0.0204,-1.65 0.2445,-2.20394 0.49804,-1.23097 0.25354,0.97297 0.23687,2.32297 -0.0371,3 -0.27393,0.67703 -0.48137,-0.11903 -0.46099,-1.76903 z M 408.40499,526.75 406.5,524.5 l 2.25,1.90499 c 2.11444,1.79022 2.70524,2.59501 1.90499,2.59501 -0.18976,0 -1.20226,-1.0125 -2.25,-2.25 z M 270.75,503.25053 c 17.1875,-0.15346 45.3125,-0.15346 62.5,0 17.1875,0.15346 3.125,0.27901 -31.25,0.27901 -34.375,0 -48.4375,-0.12555 -31.25,-0.27901 z m -2.48097,-5.94352 c 0.97297,-0.25354 2.32297,-0.23687 3,0.0371 0.67703,0.27393 -0.11903,0.48137 -1.76903,0.46099 -1.65,-0.0204 -2.20394,-0.2445 -1.23097,-0.49804 z m 65,0 c 0.97297,-0.25354 2.32297,-0.23687 3,0.0371 0.67703,0.27393 -0.11903,0.48137 -1.76903,0.46099 -1.65,-0.0204 -2.20394,-0.2445 -1.23097,-0.49804 z M 285.25,480.2517 c 9.2125,-0.16503 24.2875,-0.16503 33.5,0 9.2125,0.16503 1.675,0.30005 -16.75,0.30005 -18.425,0 -25.9625,-0.13502 -16.75,-0.30005 z m 137.82895,-91.83503 c 0.048,-1.16495 0.28494,-1.4019 0.60416,-0.60417 0.28887,0.72187 0.25335,1.58438 -0.0789,1.91667 -0.33229,0.33229 -0.56864,-0.25834 -0.52522,-1.3125 z m -243,-1 c 0.048,-1.16495 0.28494,-1.4019 0.60416,-0.60417 0.28887,0.72187 0.25335,1.58438 -0.0789,1.91667 -0.3323,0.33229 -0.56864,-0.25834 -0.52522,-1.3125 z m 0,-4 c 0.048,-1.16495 0.28494,-1.4019 0.60416,-0.60417 0.28887,0.72187 0.25335,1.58438 -0.0789,1.91667 -0.3323,0.33229 -0.56864,-0.25834 -0.52522,-1.3125 z m 243,-1 c 0.048,-1.16495 0.28494,-1.4019 0.60416,-0.60417 0.28887,0.72187 0.25335,1.58438 -0.0789,1.91667 -0.33229,0.33229 -0.56864,-0.25834 -0.52522,-1.3125 z M 362.87244,227.25 c -1.24387,-1.58606 -1.2085,-1.62143 0.37756,-0.37756 1.66575,1.30637 2.19548,2.12756 1.37244,2.12756 -0.20765,0 -0.99515,-0.7875 -1.75,-1.75 z m -28.79349,-42.83333 c 0.048,-1.16495 0.28494,-1.4019 0.60416,-0.60417 0.28887,0.72187 0.25335,1.58437 -0.0789,1.91667 -0.33229,0.33229 -0.56864,-0.25834 -0.52522,-1.3125 z M 261.15789,181 c 0,-1.375 0.22698,-1.9375 0.50439,-1.25 0.27741,0.6875 0.27741,1.8125 0,2.5 -0.27741,0.6875 -0.50439,0.125 -0.50439,-1.25 z m 86.11447,-21 c 0,-2.475 0.19502,-3.4875 0.43337,-2.25 0.23836,1.2375 0.23836,3.2625 0,4.5 -0.23835,1.2375 -0.43337,0.225 -0.43337,-2.25 z m -98.9727,-9 c 0,-3.025 0.18747,-4.2625 0.41659,-2.75 0.22913,1.5125 0.22913,3.9875 0,5.5 -0.22912,1.5125 -0.41659,0.275 -0.41659,-2.75 z m 86.95252,-10.5 c 0.0111,-2.2 0.21589,-2.98225 0.45508,-1.73834 0.23919,1.24391 0.23011,3.04391 -0.0202,4 -0.25029,0.95609 -0.446,-0.0617 -0.4349,-2.26166 z M 260.27236,127 c 0,-2.475 0.19502,-3.4875 0.43337,-2.25 0.23836,1.2375 0.23836,3.2625 0,4.5 -0.23835,1.2375 -0.43337,0.225 -0.43337,-2.25 z m 88,-12 c 0,-2.475 0.19502,-3.4875 0.43337,-2.25 0.23836,1.2375 0.23836,3.2625 0,4.5 -0.23835,1.2375 -0.43337,0.225 -0.43337,-2.25 z M 247.28601,94.5 c 0.008,-2.75 0.20172,-3.756313 0.43157,-2.23625 0.22986,1.520062 0.22371,3.770062 -0.0136,5 C 247.46657,98.493687 247.27851,97.25 247.28601,94.5 Z m 101.96617,-25 c 0.0111,-2.2 0.21589,-2.982253 0.45508,-1.738341 0.23919,1.243913 0.23011,3.043913 -0.0202,4 -0.25029,0.956088 -0.446,-0.06166 -0.4349,-2.261659 z"
         id="path6" />
      <path
         style="fill:#968a76"
         d="m 382.8125,582.31689 c 0.72187,-0.28887 1.58438,-0.25335 1.91667,0.0789 0.33229,0.33229 -0.25834,0.56864 -1.3125,0.52522 -1.16495,-0.048 -1.4019,-0.28494 -0.60417,-0.60416 z m -147,-61 c 0.72187,-0.28887 1.58437,-0.25335 1.91667,0.0789 0.33229,0.33229 -0.25834,0.56864 -1.3125,0.52522 -1.16495,-0.048 -1.4019,-0.28494 -0.60417,-0.60416 z M 286.75,497.25202 c 8.3875,-0.16726 22.1125,-0.16726 30.5,0 8.3875,0.16726 1.525,0.3041 -15.25,0.3041 -16.775,0 -23.6375,-0.13684 -15.25,-0.3041 z M 368,481.5 c 1.29175,-1.375 2.57363,-2.5 2.84863,-2.5 0.275,0 -0.55688,1.125 -1.84863,2.5 -1.29175,1.375 -2.57363,2.5 -2.84863,2.5 -0.275,0 0.55688,-1.125 1.84863,-2.5 z m -133.12756,-0.25 c -1.24387,-1.58606 -1.2085,-1.62143 0.37756,-0.37756 1.66575,1.30637 2.19548,2.12756 1.37244,2.12756 -0.20765,0 -0.99515,-0.7875 -1.75,-1.75 z m 13,-11 c -1.24387,-1.58606 -1.2085,-1.62143 0.37756,-0.37756 0.9625,0.75485 1.75,1.54235 1.75,1.75 0,0.82304 -0.82119,0.29331 -2.12756,-1.37244 z m 175.20651,-84.83333 c 0.048,-1.16495 0.28494,-1.4019 0.60416,-0.60417 0.28887,0.72187 0.25335,1.58438 -0.0789,1.91667 -0.33229,0.33229 -0.56864,-0.25834 -0.52522,-1.3125 z M 335.15789,146 c 0,-1.375 0.22698,-1.9375 0.50439,-1.25 0.27741,0.6875 0.27741,1.8125 0,2.5 -0.27741,0.6875 -0.50439,0.125 -0.50439,-1.25 z m -87.07894,-1.58333 c 0.048,-1.16495 0.28494,-1.4019 0.60416,-0.60417 0.28887,0.72187 0.25335,1.58437 -0.0789,1.91667 -0.3323,0.33229 -0.56864,-0.25834 -0.52522,-1.3125 z M 260.232,134 c 0,-1.925 0.2058,-2.7125 0.45733,-1.75 0.25152,0.9625 0.25152,2.5375 0,3.5 -0.25153,0.9625 -0.45733,0.175 -0.45733,-1.75 z m 87.84695,-24.58333 c 0.048,-1.16495 0.28494,-1.4019 0.60416,-0.60417 0.28887,0.72187 0.25335,1.58437 -0.0789,1.91667 -0.33229,0.33229 -0.56864,-0.25834 -0.52522,-1.3125 z M 247.15789,88 c 0,-1.375 0.22698,-1.9375 0.50439,-1.25 0.27741,0.6875 0.27741,1.8125 0,2.5 -0.27741,0.6875 -0.50439,0.125 -0.50439,-1.25 z M 349.07895,64.416667 c 0.048,-1.164943 0.28494,-1.4019 0.60416,-0.604167 0.28887,0.721875 0.25335,1.584375 -0.0789,1.916667 -0.33229,0.332291 -0.56864,-0.258334 -0.52522,-1.3125 z"
         id="path5" />
      <path
         style="fill:#857967"
         d="m 364.8125,521.31689 c 0.72187,-0.28887 1.58438,-0.25335 1.91667,0.0789 0.33229,0.33229 -0.25834,0.56864 -1.3125,0.52522 -1.16495,-0.048 -1.4019,-0.28494 -0.60417,-0.60416 z m 41.26645,-135.90022 c 0.048,-1.16495 0.28494,-1.4019 0.60416,-0.60417 0.28887,0.72187 0.25335,1.58438 -0.0789,1.91667 -0.33229,0.33229 -0.56864,-0.25834 -0.52522,-1.3125 z M 347.15789,152 c 0,-1.375 0.22698,-1.9375 0.50439,-1.25 0.27741,0.6875 0.27741,1.8125 0,2.5 -0.27741,0.6875 -0.50439,0.125 -0.50439,-1.25 z m -12,-2 c 0,-1.375 0.22698,-1.9375 0.50439,-1.25 0.27741,0.6875 0.27741,1.8125 0,2.5 -0.27741,0.6875 -0.50439,0.125 -0.50439,-1.25 z m -86.96294,-9.5 c 0.0204,-1.65 0.2445,-2.20394 0.49804,-1.23097 0.25354,0.97297 0.23687,2.32297 -0.0371,3 -0.27393,0.67703 -0.48137,-0.11903 -0.46099,-1.76903 z m 11.96294,-1.5 c 0,-1.375 0.22698,-1.9375 0.50439,-1.25 0.27741,0.6875 0.27741,1.8125 0,2.5 -0.27741,0.6875 -0.50439,0.125 -0.50439,-1.25 z m 87.92106,-32.58333 c 0.048,-1.16495 0.28494,-1.4019 0.60416,-0.60417 0.28887,0.72187 0.25335,1.58437 -0.0789,1.91667 -0.33229,0.33229 -0.56864,-0.25834 -0.52522,-1.3125 z M 247.15789,84 c 0,-1.375 0.22698,-1.9375 0.50439,-1.25 0.27741,0.6875 0.27741,1.8125 0,2.5 -0.27741,0.6875 -0.50439,0.125 -0.50439,-1.25 z M 349.07895,61.416667 c 0.048,-1.164943 0.28494,-1.4019 0.60416,-0.604167 0.28887,0.721875 0.25335,1.584375 -0.0789,1.916667 -0.33229,0.332291 -0.56864,-0.258334 -0.52522,-1.3125 z"
         id="path4" />
      <path
         style="fill:#6a6256"
         d="m 266.17595,582.25044 c 20.72177,-0.15089 54.92177,-0.15096 76,-1.5e-4 21.07823,0.1508 4.12405,0.27426 -37.67595,0.27434 -41.8,8e-5 -59.04582,-0.1233 -38.32405,-0.27419 z M 421,566.5 c 1.29175,-1.375 2.57363,-2.5 2.84863,-2.5 0.275,0 -0.55688,1.125 -1.84863,2.5 -1.29175,1.375 -2.57363,2.5 -2.84863,2.5 -0.275,0 0.55688,-1.125 1.84863,-2.5 z m -198.25,-2.16228 c 0.6875,-0.27741 1.8125,-0.27741 2.5,0 0.6875,0.27741 0.125,0.50439 -1.25,0.50439 -1.375,0 -1.9375,-0.22698 -1.25,-0.50439 z m 162,0 c 0.6875,-0.27741 1.8125,-0.27741 2.5,0 0.6875,0.27741 0.125,0.50439 -1.25,0.50439 -1.375,0 -1.9375,-0.22698 -1.25,-0.50439 z M 408.5,554 c 0.99549,-1.1 2.03498,-2 2.30998,-2 0.275,0 -0.31449,0.9 -1.30998,2 -0.99549,1.1 -2.03498,2 -2.30998,2 -0.275,0 0.31449,-0.9 1.30998,-2 z M 270.75,521.25053 c 17.1875,-0.15346 45.3125,-0.15346 62.5,0 17.1875,0.15346 3.125,0.27901 -31.25,0.27901 -34.375,0 -48.4375,-0.12555 -31.25,-0.27901 z M 187,514.5 c 1.29175,-1.375 2.57363,-2.5 2.84863,-2.5 0.275,0 -0.55688,1.125 -1.84863,2.5 -1.29175,1.375 -2.57363,2.5 -2.84863,2.5 -0.275,0 0.55688,-1.125 1.84863,-2.5 z m 46.75,-11.16228 c 0.6875,-0.27741 1.8125,-0.27741 2.5,0 0.6875,0.27741 0.125,0.50439 -1.25,0.50439 -1.375,0 -1.9375,-0.22698 -1.25,-0.50439 z m 134,0 c 0.6875,-0.27741 1.8125,-0.27741 2.5,0 0.6875,0.27741 0.125,0.50439 -1.25,0.50439 -1.375,0 -1.9375,-0.22698 -1.25,-0.50439 z m 47.32895,-14.92105 c 0.048,-1.16495 0.28494,-1.4019 0.60416,-0.60417 0.28887,0.72187 0.25335,1.58438 -0.0789,1.91667 -0.33229,0.33229 -0.56864,-0.25834 -0.52522,-1.3125 z m -227,-3 c 0.048,-1.16495 0.28494,-1.4019 0.60416,-0.60417 0.28887,0.72187 0.25335,1.58438 -0.0789,1.91667 -0.3323,0.33229 -0.56864,-0.25834 -0.52522,-1.3125 z M 405.92431,465.25 403.5,462.5 l 2.75,2.42431 c 2.57029,2.26589 3.20859,3.07569 2.42431,3.07569 -0.17912,0 -1.41662,-1.2375 -2.75,-2.75 z M 196,466.62244 c 0,-0.20765 0.7875,-0.99515 1.75,-1.75 1.58606,-1.24387 1.62143,-1.2085 0.37756,0.37756 C 196.82119,466.91575 196,467.44548 196,466.62244 Z m 210.07895,-78.20577 c 0.048,-1.16495 0.28494,-1.4019 0.60416,-0.60417 0.28887,0.72187 0.25335,1.58438 -0.0789,1.91667 -0.33229,0.33229 -0.56864,-0.25834 -0.52522,-1.3125 z m -209,-1 c 0.048,-1.16495 0.28494,-1.4019 0.60416,-0.60417 0.28887,0.72187 0.25335,1.58438 -0.0789,1.91667 -0.3323,0.33229 -0.56864,-0.25834 -0.52522,-1.3125 z M 197.15789,383 c 0,-1.375 0.22698,-1.9375 0.50439,-1.25 0.27741,0.6875 0.27741,1.8125 0,2.5 -0.27741,0.6875 -0.50439,0.125 -0.50439,-1.25 z m 209,-1 c 0,-1.375 0.22698,-1.9375 0.50439,-1.25 0.27741,0.6875 0.27741,1.8125 0,2.5 -0.27741,0.6875 -0.50439,0.125 -0.50439,-1.25 z M 204.07895,259.41667 c 0.048,-1.16495 0.28494,-1.4019 0.60416,-0.60417 0.28887,0.72187 0.25335,1.58438 -0.0789,1.91667 -0.3323,0.33229 -0.56864,-0.25834 -0.52522,-1.3125 z M 298.75,247.33772 c 0.6875,-0.27741 1.8125,-0.27741 2.5,0 0.6875,0.27741 0.125,0.50439 -1.25,0.50439 -1.375,0 -1.9375,-0.22698 -1.25,-0.50439 z m 5,0 c 0.6875,-0.27741 1.8125,-0.27741 2.5,0 0.6875,0.27741 0.125,0.50439 -1.25,0.50439 -1.375,0 -1.9375,-0.22698 -1.25,-0.50439 z M 375.87244,217.25 c -1.24387,-1.58606 -1.2085,-1.62143 0.37756,-0.37756 1.66575,1.30637 2.19548,2.12756 1.37244,2.12756 -0.20765,0 -0.99515,-0.7875 -1.75,-1.75 z M 228,216.62244 c 0,-0.20765 0.7875,-0.99515 1.75,-1.75 1.58606,-1.24387 1.62143,-1.2085 0.37756,0.37756 C 228.82119,216.91575 228,217.44548 228,216.62244 Z m 68.76166,-11.3297 c 1.24391,-0.23919 3.04391,-0.23011 4,0.0202 0.95609,0.25029 -0.0617,0.446 -2.26166,0.4349 -2.2,-0.0111 -2.98225,-0.21589 -1.73834,-0.45508 z m 7.48834,0.0179 c 0.9625,-0.25152 2.5375,-0.25152 3.5,0 0.9625,0.25153 0.175,0.45733 -1.75,0.45733 -1.925,0 -2.7125,-0.2058 -1.75,-0.45733 z M 288,190.60699 c 0,-0.21616 0.69837,-0.661 1.55194,-0.98855 0.88992,-0.34149 1.29132,-0.17385 0.94098,0.39301 C 289.90566,190.96166 288,191.4169 288,190.60699 Z M 335.32007,158 c 0,-3.575 0.1815,-5.0375 0.40333,-3.25 0.22182,1.7875 0.22182,4.7125 0,6.5 -0.22183,1.7875 -0.40333,0.325 -0.40333,-3.25 z m -74.97726,-9.5 c 0.004,-4.4 0.17944,-6.07561 0.39069,-3.72357 0.21124,2.35204 0.20827,5.95204 -0.007,8 -0.21487,2.04796 -0.38771,0.12357 -0.38408,-4.27643 z M 308,151.5 c 0,-0.825 0.43588,-1.5 0.96862,-1.5 0.53273,0 0.70959,0.675 0.39301,1.5 -0.31659,0.825 -0.75246,1.5 -0.96862,1.5 C 308.17686,153 308,152.325 308,151.5 Z m 39.30987,-7 c 0.006,-3.3 0.1923,-4.52944 0.41486,-2.73209 0.22256,1.79735 0.21797,4.49735 -0.0102,6 -0.22818,1.50265 -0.41027,0.0321 -0.40466,-3.26791 z M 248.33621,131 c 0,-4.125 0.17651,-5.8125 0.39226,-3.75 0.21574,2.0625 0.21574,5.4375 0,7.5 -0.21575,2.0625 -0.39226,0.375 -0.39226,-3.75 z m 99.98386,-32 c 0,-3.575 0.1815,-5.0375 0.40333,-3.25 0.22182,1.7875 0.22182,4.7125 0,6.5 -0.22183,1.7875 -0.40333,0.325 -0.40333,-3.25 z M 247.33621,75 c 0,-4.125 0.17651,-5.8125 0.39226,-3.75 0.21574,2.0625 0.21574,5.4375 0,7.5 -0.21575,2.0625 -0.39226,0.375 -0.39226,-3.75 z"
         id="path3" />
      <path
         style="fill:#010100"
         d="m 213.78838,580.44859 c -14.41002,-3.49373 -28.30447,-13.91097 -33.58535,-25.18034 -2.34679,-5.00803 -2.70158,-7.0203 -2.692,-15.26825 0.01,-8.50817 0.31742,-10.10747 2.94581,-15.31852 C 183.17371,519.295 194.66746,507 196.98604,507 c 0.50207,0 -0.96956,-2.72792 -3.27029,-6.06204 -3.8331,-5.55477 -4.21464,-6.68571 -4.5595,-13.51492 -0.32473,-6.43049 -0.0247,-8.17102 2.18727,-12.68796 3.33869,-6.81781 9.5611,-12.8079 17.70389,-17.04289 l 6.54741,-3.40525 -12.85927,-17.89347 c -7.0726,-9.84141 -13.56255,-19.21714 -14.42211,-20.83496 -3.78205,-7.11834 -6.46516,-17.29484 -7.00235,-26.55851 -0.52283,-9.01605 -0.13446,-11.56316 7.62365,-50 6.75281,-33.45615 8.75328,-41.71746 11.5021,-47.5 3.18321,-6.69634 3.34889,-7.62902 3.81931,-21.5 0.53279,-15.71007 2.05231,-22.10961 7.83584,-33.00088 l 2.9211,-5.50088 -17.83956,-77.24912 C 187.36178,111.7621 179.41662,77 179.51764,77 c 0.10101,0 15.66337,20.279351 34.58301,45.06522 l 34.39935,45.06523 0.27848,-8.81523 c 0.15316,-4.84837 -0.1182,-28.84022 -0.60302,-53.31522 -0.48483,-24.475 -0.83514,-44.569992 -0.77848,-44.655537 0.0567,-0.08554 7.25867,16.473803 16.00447,36.79855 8.7458,20.324747 16.22753,36.594737 16.62608,36.155537 0.39854,-0.4392 4.45019,-19.92355 9.00367,-43.29855 4.55348,-23.375 8.56565,-42.833904 8.91593,-43.242009 0.35029,-0.408105 4.39602,18.491895 8.9905,42 4.59449,23.508109 8.64404,43.552529 8.99899,44.543169 0.43795,1.22226 5.75387,-9.94043 16.5398,-34.731248 8.74193,-20.092824 16.08403,-36.342797 16.31577,-36.111053 0.57695,0.576946 -1.77435,106.666181 -2.40564,108.541141 -0.73909,2.19514 -1.83568,3.56156 38.11997,-47.5 20.22761,-25.85 36.50111,-46.1 36.16332,-45 -0.33778,1.1 -8.51861,34.35788 -18.17963,73.9064 -9.66102,39.54851 -17.75104,72.20662 -17.97782,72.57356 -0.22679,0.36694 1.05455,2.73036 2.8474,5.25205 C 395.86012,242.1879 400,256.67398 400,274.46202 c 0,8.9525 0.30942,10.85341 2.38663,14.66203 3.82174,7.00726 5.15959,12.2685 13.19124,51.87595 7.23756,35.6914 7.57944,37.98229 7.08872,47.5 -0.36376,7.05531 -1.26437,12.1582 -3.05842,17.32911 -3.07912,8.87482 -3.87724,10.19878 -19.09199,31.67089 l -12.0459,17 6.01231,2.94139 c 7.6272,3.73143 14.99909,10.60223 18.24221,17.00224 4.2631,8.41281 3.13415,19.83505 -2.69258,27.24254 l -2.02099,2.56927 4.27876,2.71351 c 23.8736,15.14019 27.41559,42.15996 7.8902,60.18973 -7.31724,6.75675 -13.97109,10.35815 -23.76563,12.86317 -7.42042,1.89782 -11.16938,1.97477 -92.32452,1.89484 -68.4266,-0.0674 -85.68141,-0.34792 -90.30166,-1.4681 z m 179.35628,-17.42361 c 8.55566,-2.6588 16.14399,-7.95501 19.42885,-13.5602 2.26907,-3.87189 2.59882,-5.40556 2.23718,-10.40524 -0.67028,-9.26653 -7.12106,-16.25115 -18.97228,-20.54238 l -6.12564,-2.21804 -6.10639,2.10044 C 377.61334,520.46101 376.09864,520.5 302,520.5 c -68.30522,0 -75.96485,-0.16111 -80.37805,-1.69067 -4.49962,-1.55951 -5.19782,-1.56684 -9,-0.0945 -5.46712,2.11706 -12.56505,7.50897 -15.45889,11.74326 -8.37032,12.24754 1.41307,27.82065 20.83694,33.16807 3.39948,0.93588 24.58931,1.25536 86.64466,1.30635 79.08965,0.065 82.38103,-0.006 88.5,-1.90753 z M 375.93233,502.45429 C 387.47546,499.73349 398,492.04232 398,486.32757 c 0,-5.35501 -6.68997,-11.82881 -16.21349,-15.68958 l -3.71348,-1.50542 -3.51078,4.78263 c -7.45543,10.15632 -16.30577,16.67008 -27.97004,20.58565 C 339.18334,496.98792 338.96787,497 302,497 c -36.96787,0 -37.18334,-0.0121 -44.59221,-2.49915 -11.51117,-3.86417 -21.43261,-11.15717 -27.92676,-20.52822 C 227.96686,471.78768 226.00816,470 225.12835,470 c -3.04454,0 -12.25815,5.40127 -15.68613,9.19563 C 207.549,481.2912 206,484.06292 206,485.355 c 0,6.21553 9.48529,13.81699 21,16.82928 5.80246,1.51795 13.79736,1.70503 74.5,1.74329 57.37912,0.0362 69.00466,-0.19394 74.43233,-1.47328 z m -34.3765,-23.46398 c 10.84532,-3.66674 14.06273,-7.05088 36.59399,-38.49031 11.43066,-15.95 22.1179,-31.7 23.74941,-35 3.50873,-7.09695 5.58403,-17.81695 4.71112,-24.33532 -0.34357,-2.56557 -3.96982,-21.04857 -8.05833,-41.07331 -8.44725,-41.37301 -9.92414,-45.57501 -18.90256,-53.78078 -7.1137,-6.50152 -62.55295,-36.47419 -70.93412,-38.34981 -10.82145,-2.42174 -14.96645,-0.95592 -48.92951,17.30316 -21.30801,11.45553 -31.68412,17.6183 -35.43441,21.04585 -9.13354,8.34754 -10.46334,12.22032 -19.52039,56.84937 -7.90451,38.94984 -7.97367,39.42238 -6.95827,47.54533 0.60652,4.85205 2.07196,10.41634 3.5864,13.61759 1.40844,2.9772 12.1379,18.85573 23.84324,35.28561 30.88055,43.34464 26.92028,41.199 76.25343,41.31336 31.59298,0.0732 34.4857,-0.0664 40,-1.93074 z M 253,250.07067 c 34.03913,-18.2464 34.80793,-18.53675 49,-18.50561 9.64188,0.0212 12.44907,0.40058 17.3738,2.34825 5.85814,2.31683 54.93203,28.23067 61.68382,32.57261 l 3.55762,2.28783 -0.74388,-6.17901 c -1.59248,-13.22783 -6.76956,-22.52829 -18.88418,-33.92486 -18.23357,-17.15284 -46.95958,-26.03115 -73.66598,-22.76787 -22.89741,2.79785 -39.94422,10.51142 -54.44439,24.63573 -10.09681,9.83509 -15.26288,19.71954 -16.74628,32.04135 l -0.742,6.16336 4.55573,-2.76938 C 226.44992,264.44991 239.525,257.29383 253,250.07067 Z m -16.5,-39.77065 c 3.3,-2.49592 9.27114,-6.16244 13.2692,-8.14781 4.49605,-2.23268 7.08536,-4.08884 6.78732,-4.86553 -0.82942,-2.16141 -53.04262,-70.16102 -53.31389,-69.43308 -0.14156,0.37985 4.47094,21.13139 10.25,46.11452 C 219.27168,198.95125 224,219.56141 224,219.76847 c 0,0.20707 1.4625,-0.81757 3.25,-2.27697 1.7875,-1.45939 5.95,-4.69556 9.25,-7.19148 z M 376.74065,217.25 c -1.43843,-1.60405 -0.66596,-5.4196 9.26216,-45.74952 5.95731,-24.19974 10.70439,-44.12662 10.54906,-44.28195 -0.15533,-0.15533 -12.35814,15.14446 -27.11735,33.99953 -14.7592,18.85507 -27.23721,34.44607 -27.72889,34.64666 -0.49169,0.2006 1.62666,1.38919 4.70743,2.64131 8.76592,3.56274 19.60328,10.12162 25.602,15.49459 5.65031,5.06091 7.47561,6.31601 4.72559,3.24938 z M 283,191.58564 c 5.52805,-0.92549 7.41592,-1.62767 7.18022,-2.67064 -0.44207,-1.95608 -27.10333,-63.82552 -28.83554,-66.915 -1.21668,-2.17001 -1.32943,1.71525 -0.85417,29.43433 l 0.54754,31.93433 4.09111,5.41864 c 3.80679,5.04206 4.30933,5.37122 7.23098,4.73631 1.72692,-0.37528 6.51486,-1.24737 10.63986,-1.93797 z m 50.61316,-3.28904 c 2.11975,-2.58688 3.30454,-4.36377 2.63287,-3.94865 -0.95595,0.5908 -1.11341,-6.37037 -0.72491,-32.0466 0.27297,-18.04074 0.26571,-32.35135 -0.0161,-31.80135 -0.28185,0.55 -7.21336,16.3 -15.40335,35 l -14.8909,34 7.14463,0.69684 c 3.92955,0.38327 8.94464,1.12557 11.14464,1.64955 6.0735,1.44657 5.99702,1.47341 10.11316,-3.54979 z M 304.17805,163.25 c 3.04607,-7.0125 5.22544,-12.975 4.84303,-13.25 -0.3824,-0.275 -2.89015,-11.61593 -5.57277,-25.20207 -2.68263,-13.58614 -5.11843,-24.46711 -5.4129,-24.17992 -0.29448,0.28719 -2.83153,12.07812 -5.6379,26.20207 l -5.10248,25.67992 5.06744,11.75 c 2.78709,6.4625 5.33965,11.75 5.67236,11.75 0.3327,0 3.09715,-5.7375 6.14322,-12.75 z"
         id="path2" />
    </g>
  </g>
</svg>
